# xmcd CD database file
#
# Track frame offsets:
#	150
#	16662
#	34844
#	52032
#	68865
#	87163
#	97372
#	117603
#	132998
#	146050
#
# Disc length: 2218 seconds
#
# Revision: 0
# Processed by: cddbd v1.5.2PL0 Copyright (c) Steve Scherf et al.
# Submitted via: CDex 1.51
#
DISCID=9308a80a
DTITLE=sanawon - bonfire night
DYEAR=2007
DGENRE=Jazz
TTITLE0=Noel, KS
TTITLE1=Halo
TTITLE2=May or May Not
TTITLE3=Why Do I
TTITLE4=Light the Sky
TTITLE5=Nostalgic
TTITLE6=1234
TTITLE7=Undermine
TTITLE8=Things Fall Apart
TTITLE9=The Past May Repeat
EXTD=YEAR: 2007
EXTT0=
EXTT1=
EXTT2=
EXTT3=
EXTT4=
EXTT5=
EXTT6=
EXTT7=
EXTT8=
EXTT9=
PLAYORDER=
